<svg width="250" height="350" viewBox="0 0 250 350" xmlns="http://www.w3.org/2000/svg">
  <path fill="#4bcfb5" fill-opacity="0.7" d="M125,20 
    C160,20 190,50 190,85 
    C190,120 160,150 125,150 
    C90,150 60,120 60,85 
    C60,50 90,20 125,20 Z
    
    M125,150 
    L125,230 
    
    M125,170 
    L90,200 
    
    M125,170 
    L160,200 
    
    M125,200 
    L90,230 
    
    M125,200 
    L160,230 
    
    M90,230 
    L160,230 
    
    M105,230 
    L105,280 
    
    M145,230 
    L145,280 
    
    M85,280 
    L165,280 
    
    M105,280 
    L85,330 
    
    M145,280 
    L165,330" />
    
  <path fill="#218c74" fill-opacity="0.6" d="M125,40 
    C145,40 160,55 160,75 
    C160,95 145,110 125,110 
    C105,110 90,95 90,75 
    C90,55 105,40 125,40 Z" />
    
  <circle cx="125" cy="75" r="15" fill="#f6cd61" fill-opacity="0.8" />
  
  <path fill="none" stroke="#f6cd61" stroke-width="2" stroke-opacity="0.8" d="M125,110 
    C135,120 135,130 125,140 
    C115,130 115,120 125,110 Z" />
    
  <path fill="none" stroke="#ff7979" stroke-width="1" stroke-opacity="0.6" d="M90,75 
    C105,65 145,65 160,75" />
    
  <path fill="none" stroke="#ff7979" stroke-width="1" stroke-opacity="0.6" d="M90,85 
    C105,95 145,95 160,85" />
</svg>