<svg width="70" height="70" viewBox="0 0 70 70" xmlns="http://www.w3.org/2000/svg">
  <!-- Main body -->
  <path d="M20,35 
    C20,25 50,25 50,35 
    C50,45 20,45 20,35 Z" fill="#f6cd61" fill-opacity="0.8" />
  
  <!-- Head -->
  <ellipse cx="35" cy="20" rx="10" ry="15" fill="#f6cd61" fill-opacity="0.8" />
  
  <!-- Eyes - strange vertical slits -->
  <line x1="30" y1="15" x2="30" y2="25" stroke="#051f17" stroke-width="2" />
  <line x1="40" y1="15" x2="40" y2="25" stroke="#051f17" stroke-width="2" />
  
  <!-- Decorative patterns -->
  <path d="M25,35 
    C30,30 40,30 45,35" fill="none" stroke="#051f17" stroke-width="1" />
    
  <path d="M25,40 
    C30,45 40,45 45,40" fill="none" stroke="#051f17" stroke-width="1" />
  
  <!-- Tentacles -->
  <path d="M20,35 
    C15,30 10,35 5,30" fill="none" stroke="#f6cd61" stroke-width="2" />
    
  <path d="M50,35 
    C55,30 60,35 65,30" fill="none" stroke="#f6cd61" stroke-width="2" />
    
  <path d="M35,50 
    C35,55 30,60 35,65" fill="none" stroke="#f6cd61" stroke-width="2" />
</svg>