<svg width="800" height="300" viewBox="0 0 800 300" xmlns="http://www.w3.org/2000/svg">
  <!-- Transparent background to allow bg to show through -->
  <rect width="800" height="300" fill="none" />
  
  <!-- Strange alien plants and structures -->
  <g fill="#4bcfb5" fill-opacity="0.6">
    <!-- Tall alien plant left -->
    <path d="M150,180 
      C150,150 140,130 140,100 
      C140,70 160,70 160,100 
      C160,130 150,150 150,180 Z" />
      
    <!-- Bulbous plant center-left -->
    <path d="M250,200 
      C250,170 270,160 270,140 
      C270,120 230,120 230,140 
      C230,160 250,170 250,200 Z" />
      
    <!-- Spiral plant center -->
    <path d="M400,190 
      C400,170 380,150 400,130 
      C420,110 440,130 420,150 
      C400,170 420,190 400,190 Z" />
      
    <!-- Strange geometric structure right -->
    <path d="M600,180 
      L580,120 L620,120 L600,180 
      M600,120 L600,80 
      M580,120 L560,100 
      M620,120 L640,100" />
      
    <!-- Bulbous plant far-right -->
    <path d="M700,200 
      C700,170 720,160 720,140 
      C720,120 680,120 680,140 
      C680,160 700,170 700,200 Z" />
  </g>
  
  <!-- Middle ground alien landscape -->
  <path d="M0,220 
    C50,200 100,210 150,205 
    C200,200 250,220 300,210 
    C350,200 400,180 450,200 
    C500,220 550,210 600,215 
    C650,220 700,205 750,215 
    L800,250 L0,250 Z" 
    fill="#0d4735" />
    
  <!-- Small strange creatures silhouettes -->
  <g fill="#051f17">
    <ellipse cx="180" cy="230" rx="15" ry="5" />
    <rect x="175" y="225" width="10" height="5" />
    <circle cx="172" cy="222" r="2" />
    <circle cx="188" cy="222" r="2" />
    
    <ellipse cx="480" cy="235" rx="20" ry="7" />
    <path d="M480,228 L470,215 L490,215 Z" />
    <circle cx="475" cy="212" r="3" />
    <circle cx="485" cy="212" r="3" />
  </g>
</svg>