<svg width="800" height="300" viewBox="0 0 800 300" xmlns="http://www.w3.org/2000/svg">
  <!-- Deep space background -->
  <rect width="800" height="300" fill="#051f17" />
  
  <!-- Stars -->
  <g fill="#ffffff" fill-opacity="0.8">
    <circle cx="50" cy="30" r="1" />
    <circle cx="150" cy="70" r="1.5" />
    <circle cx="250" cy="40" r="1" />
    <circle cx="350" cy="90" r="2" />
    <circle cx="450" cy="20" r="1" />
    <circle cx="550" cy="60" r="1.5" />
    <circle cx="650" cy="30" r="1" />
    <circle cx="750" cy="80" r="2" />
    <circle cx="100" cy="120" r="1" />
    <circle cx="200" cy="150" r="1.5" />
    <circle cx="300" cy="110" r="1" />
    <circle cx="400" cy="160" r="2" />
    <circle cx="500" cy="130" r="1" />
    <circle cx="600" cy="170" r="1.5" />
    <circle cx="700" cy="140" r="1" />
    <circle cx="30" cy="200" r="1.5" />
    <circle cx="130" cy="230" r="1" />
    <circle cx="230" cy="210" r="2" />
    <circle cx="330" cy="240" r="1" />
    <circle cx="430" cy="220" r="1.5" />
    <circle cx="530" cy="250" r="1" />
    <circle cx="630" cy="220" r="2" />
    <circle cx="730" cy="240" r="1" />
  </g>
  
  <!-- Distant planets and moons -->
  <circle cx="150" cy="80" r="20" fill="#218c74" fill-opacity="0.3" />
  <circle cx="650" cy="120" r="35" fill="#4bcfb5" fill-opacity="0.2" />
  <circle cx="400" cy="50" r="15" fill="#f6cd61" fill-opacity="0.3" />
  
  <!-- Distant alien landscape silhouette -->
  <path d="M0,250 
    C50,230 100,240 150,230 
    C200,220 250,240 300,230 
    C350,220 400,200 450,220 
    C500,240 550,230 600,240 
    C650,250 700,230 750,240 
    L800,280 L0,280 Z" 
    fill="#0a3a2a" />
    
  <!-- Psychedelic cloud formations -->
  <path d="M100,150 
    C150,130 200,160 250,140 
    C300,120 350,150 400,130 
    C450,110 500,140 550,120 
    C600,100 650,130 700,110 
    L700,200 L100,200 Z" 
    fill="#218c74" fill-opacity="0.1" />
</svg>