<svg width="500" height="500" viewBox="0 0 500 500" xmlns="http://www.w3.org/2000/svg">
  <g fill="#ffae42" fill-opacity="0.3">
    <!-- Repeating arabesque pattern -->
    <path d="M50,50 C70,30 90,30 110,50 C130,70 150,70 170,50 C190,30 210,30 230,50 C250,70 270,70 290,50 C310,30 330,30 350,50 C370,70 390,70 410,50 C430,30 450,30 470,50 L470,70 C450,50 430,50 410,70 C390,90 370,90 350,70 C330,50 310,50 290,70 C270,90 250,90 230,70 C210,50 190,50 170,70 C150,90 130,90 110,70 C90,50 70,50 50,70 L50,50 Z" />
    
    <!-- Repeat the pattern down the SVG -->
    <use href="#pattern" transform="translate(0,100)" />
    <use href="#pattern" transform="translate(0,200)" />
    <use href="#pattern" transform="translate(0,300)" />
    <use href="#pattern" transform="translate(0,400)" />
    
    <!-- Decorative circles -->
    <circle cx="100" cy="100" r="20" />
    <circle cx="300" cy="100" r="20" />
    <circle cx="100" cy="300" r="20" />
    <circle cx="300" cy="300" r="20" />
    <circle cx="200" cy="200" r="30" />
    
    <!-- Decorative stars -->
    <path d="M200,50 L210,80 L240,80 L215,100 L225,130 L200,110 L175,130 L185,100 L160,80 L190,80 Z" />
    <path d="M200,350 L210,380 L240,380 L215,400 L225,430 L200,410 L175,430 L185,400 L160,380 L190,380 Z" />
    <path d="M50,200 L60,230 L90,230 L65,250 L75,280 L50,260 L25,280 L35,250 L10,230 L40,230 Z" />
    <path d="M350,200 L360,230 L390,230 L365,250 L375,280 L350,260 L325,280 L335,250 L310,230 L340,230 Z" />
  </g>
</svg>