<svg width="300" height="500" viewBox="0 0 300 500" xmlns="http://www.w3.org/2000/svg">
  <path fill="#000000" d="M150,50 
    C160,50 170,55 175,65 
    C180,75 180,85 175,95 
    L185,90 L195,100 L185,110 
    L195,120 L180,130 L165,125 
    L155,135 L150,130 L145,135 
    L135,125 L120,130 L105,120 
    L115,110 L105,100 L115,90 
    L125,95 C120,85 120,75 125,65 
    C130,55 140,50 150,50 Z
    
    <!-- Face features suggested by the silhouette -->
    M135,70 
    C138,70 140,73 140,75 
    C140,77 138,80 135,80 
    C132,80 130,77 130,75 
    C130,73 132,70 135,70 Z
    
    M165,70 
    C168,70 170,73 170,75 
    C170,77 168,80 165,80 
    C162,80 160,77 160,75 
    C160,73 162,70 165,70 Z
    
    M150,85 
    C155,85 160,88 160,90 
    C160,92 155,95 150,95 
    C145,95 140,92 140,90 
    C140,88 145,85 150,85 Z
    
    <!-- Long flowing dress -->
    M135,135 
    L125,150 L115,200 L125,250 
    L115,300 L125,350 L110,400 
    L125,450 L150,480 L175,450 
    L190,400 L175,350 L185,300 
    L175,250 L185,200 L175,150 
    L165,135 Z
    
    <!-- Add fairy wings -->
    M135,120 
    L110,100 L85,110 L70,100 
    L55,110 L40,100 L30,110 
    L40,120 L30,130 L45,140 
    L60,130 L75,140 L90,130 
    L105,140 L120,130 Z
    
    M165,120 
    L190,100 L215,110 L230,100 
    L245,110 L260,100 L270,110 
    L260,120 L270,130 L255,140 
    L240,130 L225,140 L210,130 
    L195,140 L180,130 Z
    
    <!-- Add decorative elements to dress -->
    M150,200 
    L170,210 L190,205 L180,220 
    L160,225 L150,220 L140,225 
    L120,220 L110,205 L130,210 Z
    
    M150,300 
    L170,310 L190,305 L180,320 
    L160,325 L150,320 L140,325 
    L120,320 L110,305 L130,310 Z
    
    <!-- Add crown or headdress -->
    M150,50 
    C155,50 160,45 160,40 
    L150,35 L140,40 
    C140,45 145,50 150,50 Z
    
    M145,35 
    L135,30 L140,25 L135,20 
    L145,15 L150,20 L155,15 
    L165,20 L160,25 L165,30 
    L155,35 Z" />
</svg>