<svg width="100" height="200" viewBox="0 0 100 200" xmlns="http://www.w3.org/2000/svg">
  <path fill="#000000" d="M50,10 
    C55,10 60,15 60,20 
    L65,25 L70,20 L75,25 L70,35 
    L75,40 L70,45 L75,50 L65,55 
    L60,50 L55,55 L50,50 L45,55 
    L40,50 L35,55 L25,50 L30,45 
    L25,40 L30,35 L25,25 L30,20 
    L35,25 L40,20 C40,15 45,10 50,10 Z
    
    M40,55 
    L30,70 L35,75 L25,85 L30,90 
    L25,100 L30,110 L25,120 
    L35,130 L30,140 L40,150 
    L35,160 L45,180 L55,180 
    L65,160 L60,150 L70,140 
    L65,130 L75,120 L70,110 
    L75,100 L70,90 L75,85 
    L65,75 L70,70 L60,55 Z
    
    M35,75 
    L25,65 L15,70 L10,65 L15,60 
    L10,55 L15,50 L10,45 L20,40 
    L25,45 L30,40 L35,45 L30,50 
    L35,55 L30,60 L35,65 Z
    
    M65,75 
    L75,65 L85,70 L90,65 L85,60 
    L90,55 L85,50 L90,45 L80,40 
    L75,45 L70,40 L65,45 L70,50 
    L65,55 L70,60 L65,65 Z" />
  
  <!-- Add thin stick at the top -->
  <line x1="50" y1="0" x2="50" y2="10" stroke="#ffae42" stroke-width="2" />
</svg>