<svg width="300" height="500" viewBox="0 0 300 500" xmlns="http://www.w3.org/2000/svg">
  <path fill="#000000" d="M150,50 
    C160,50 170,55 175,65 
    C180,75 180,85 175,95 
    L190,90 L190,105200,95 L 
    L200,115 L190,125 L200,135 
    L185,145 L170,140 L160,150 
    L150,145 L140,150 L130,140 
    L115,145 L100,135 L110,125 
    L100,115 L110,105 L100,95 
    L110,90 L125,95 C120,85 120,75 125,65 
    C130,55 140,50 150,50 Z
    
    M150,80 
    C145,80 140,85 140,90 
    C140,95 145,100 150,100 
    C155,100 160,95 160,90 
    C160,85 155,80 150,80 Z
    
    M125,150 
    L115,180 L125,190 L110,210 
    L120,220 L110,240 L120,260 
    L110,280 L125,300 L115,320 
    L130,340 L120,360 L140,400 
    L150,420 L160,400 L180,360 
    L170,340 L185,320 L175,300 
    L190,280 L180,260 L190,240 
    L180,220 L190,210 L175,190 
    L185,180 L175,150 Z
    
    M110,190 
    L90,175 L70,190 L60,180 L70,170 
    L60,160 L70,150 L60,140 L80,130 
    L90,140 L100,135 L110,145 L100,155 
    L110,165 L100,175 L110,180 Z
    
    M190,190 
    L210,175 L230,190 L240,180 L230,170 
    L240,160 L230,150 L240,140 L220,130 
    L210,140 L200,135 L190,145 L200,155 
    L190,165 L200,175 L190,180 Z"/>
    
    <!-- Add ornate turban -->
    <path d="M150,50 
      C140,45 135,35 140,25 
      C145,15 155,10 165,15 
      C175,20 180,30 175,40 
      C173,45 170,48 165,50 
      
      M140,45 
      L130,35 L120,40 L110,35 
      L105,25 L115,20 L125,25 
      L135,20 L140,30 Z
      
      M160,50 
      L165,45 L175,48 L185,45 
      L195,50 L190,55 L180,52 
      L170,55 Z" />
      
    <!-- Add decorative elements to clothing -->
    <path d="M150,150 
      L160,160 L170,155 L180,160 
      L170,170 L160,165 L150,170 
      L140,165 L130,170 L120,160 
      L130,155 L140,160 Z
      
      M150,220 
      L165,230 L180,225 L175,240 
      L160,245 L150,240 L140,245 
      L125,240 L120,225 L135,230 Z
      
      M150,300 
      L165,310 L180,305 L175,320 
      L160,325 L150,320 L140,325 
      L125,320 L120,305 L135,310 Z" />
  </path>
</svg>