<svg width="150" height="150" viewBox="0 0 150 150" xmlns="http://www.w3.org/2000/svg">
  <path fill="#ffae42" d="M75,10 
    C90,10 105,15 115,25 
    C125,35 130,50 130,65 
    C130,80 125,95 115,105 
    C105,115 90,120 75,120 
    C60,120 45,115 35,105 
    C25,95 20,80 20,65 
    C20,50 25,35 35,25 
    C45,15 60,10 75,10 Z
    M75,30 
    C65,30 55,35 48,42 
    C41,49 36,59 36,70 
    C36,81 41,91 48,98 
    C55,105 65,110 75,110 
    C85,110 95,105 102,98 
    C109,91 114,81 114,70 
    C114,59 109,49 102,42 
    C95,35 85,30 75,30 Z
    M60,55 L75,40 L90,55 L90,85 L75,100 L60,85 Z
    M75,55 L60,70 L75,85 L90,70 Z" />
</svg>