<svg width="120" height="120" viewBox="0 0 120 120" xmlns="http://www.w3.org/2000/svg">
  <path fill="#ffae42" d="M60,10 
    L70,20 L80,10 L90,20 L100,10 L110,20 
    L100,30 L110,40 L100,50 L110,60 
    L100,70 L110,80 L100,90 L110,100 
    L100,110 L90,100 L80,110 L70,100 L60,110 
    L50,100 L40,110 L30,100 L20,110 L10,100 
    L20,90 L10,80 L20,70 L10,60 L20,50 
    L10,40 L20,30 L10,20 L20,10 L30,20 
    L40,10 L50,20 Z
    M60,30 
    C75,30 90,45 90,60 
    C90,75 75,90 60,90 
    C45,90 30,75 30,60 
    C30,45 45,30 60,30 Z
    M60,40 
    C50,40 40,50 40,60 
    C40,70 50,80 60,80 
    C70,80 80,70 80,60 
    C80,50 70,40 60,40 Z
    M60,50 
    L65,55 L65,65 L55,65 L55,55 Z" />
</svg>