<svg width="180" height="180" viewBox="0 0 180 180" xmlns="http://www.w3.org/2000/svg">
  <path fill="#ffae42" d="M90,15 
    L110,35 L130,35 L150,55 L150,85 
    L130,105 L130,125 L110,145 L90,145 
    L70,125 L50,125 L30,105 L30,75 
    L50,55 L50,35 L70,15 Z
    M90,35 
    L75,50 L75,70 L55,70 L55,90 L75,90 
    L75,110 L90,125 L105,110 L105,90 
    L125,90 L125,70 L105,70 L105,50 Z
    M90,60 
    C95,60 100,65 100,70 
    C100,75 95,80 90,80 
    C85,80 80,75 80,70 
    C80,65 85,60 90,60 Z" />
</svg>