<svg width="150" height="150" viewBox="0 0 150 150" xmlns="http://www.w3.org/2000/svg">
  <path fill="#4bcfb5" fill-opacity="0.7" d="M75,10 
    C100,10 125,35 125,60 
    C125,85 100,110 75,110 
    C50,110 25,85 25,60 
    C25,35 50,10 75,10 Z
    
    M75,30 
    C60,30 45,45 45,60 
    C45,75 60,90 75,90 
    C90,90 105,75 105,60 
    C105,45 90,30 75,30 Z
    
    M75,30 
    L75,10 
    
    M75,90 
    L75,110 
    
    M45,60 
    L25,60 
    
    M105,60 
    L125,60" />
    
  <circle cx="75" cy="60" r="5" fill="#f6cd61" />
  
  <path fill="none" stroke="#4bcfb5" stroke-width="2" stroke-opacity="0.7" d="M75,120 
    C90,120 105,130 105,140 
    C105,150 90,150 75,150 
    C60,150 45,150 45,140 
    C45,130 60,120 75,120 Z" />
    
  <path fill="none" stroke="#f6cd61" stroke-width="1" stroke-opacity="0.9" d="M20,20 
    L40,40 
    
    M130,20 
    L110,40 
    
    M20,100 
    L40,80 
    
    M130,100 
    L110,80" />
</svg>