<svg width="100" height="100" viewBox="0 0 100 100" xmlns="http://www.w3.org/2000/svg">
  <path fill="#f6cd61" fill-opacity="0.6" d="M50,10 
    C60,10 70,20 70,30 
    C70,40 60,50 50,50 
    C40,50 30,40 30,30 
    C30,20 40,10 50,10 Z" />
    
  <path fill="#ff7979" fill-opacity="0.4" d="M50,50 
    C65,50 80,65 80,80 
    C80,95 65,100 50,100 
    C35,100 20,95 20,80 
    C20,65 35,50 50,50 Z" />
    
  <circle cx="50" cy="30" r="5" fill="#4bcfb5" />
  <circle cx="50" cy="80" r="8" fill="#4bcfb5" fill-opacity="0.6" />
  
  <path fill="none" stroke="#f6cd61" stroke-width="1" d="M30,30 
    C40,20 60,20 70,30" />
    
  <path fill="none" stroke="#ff7979" stroke-width="1" d="M20,80 
    C30,65 70,65 80,80" />
    
  <line x1="50" y1="40" x2="50" y2="60" stroke="#4bcfb5" stroke-width="2" stroke-dasharray="2,2" />
</svg>