<svg width="200" height="200" viewBox="0 0 200 200" xmlns="http://www.w3.org/2000/svg">
  <g transform="rotate(15, 100, 100)">
    <path fill="#ff7979" fill-opacity="0.6" d="M100,10 
      L120,40 L160,50 L130,80 L140,120 
      L100,100 L60,120 L70,80 L40,50 L80,40 Z" />
      
    <path fill="none" stroke="#f6cd61" stroke-width="2" stroke-dasharray="5,5" d="M100,10 
      L100,190" />
      
    <circle cx="100" cy="10" r="5" fill="#4bcfb5" />
    <circle cx="100" cy="190" r="5" fill="#4bcfb5" />
    
    <path fill="none" stroke="#4bcfb5" stroke-width="1" d="M20,100 
      L180,100" />
      
    <circle cx="20" cy="100" r="5" fill="#f6cd61" />
    <circle cx="180" cy="100" r="5" fill="#f6cd61" />
    
    <ellipse cx="100" cy="100" rx="30" ry="50" fill="none" stroke="#4bcfb5" stroke-width="1" stroke-opacity="0.8" />
    
    <path fill="#4bcfb5" fill-opacity="0.3" d="M100,140 
      C120,140 130,160 130,180 
      C130,200 120,200 100,200 
      C80,200 70,200 70,180 
      C70,160 80,140 100,140 Z" />
  </g>
</svg>