<svg width="100" height="180" viewBox="0 0 100 180" xmlns="http://www.w3.org/2000/svg">
  <path fill="#000000" d="M50,10 
    C55,10 65,15 70,25 
    L75,20 L80,25 L75,30 
    L80,40 L70,50 L65,45 
    L60,50 L50,45 L40,50 
    L35,45 L30,50 L20,40 
    L25,30 L20,25 L25,20 
    L30,25 C35,15 45,10 50,10 Z
    
    M35,50 
    L25,65 L30,70 L25,80 
    L30,90 L25,100 L35,110 
    L30,120 L40,130 L35,140 
    L30,150 L40,160 L50,170 
    L60,160 L70,150 L65,140 
    L60,130 L70,120 L65,110 
    L75,100 L70,90 L75,80 
    L70,70 L75,65 L65,50 Z
    
    M30,70 
    L15,65 L5,75 L10,85 L5,90 
    L15,95 L10,100 L20,105 
    L15,110 L25,115 L20,120 
    L30,125 L35,115 L30,105 
    L35,95 L30,85 L35,80 Z
    
    M70,70 
    L85,65 L95,75 L90,85 L95,90 
    L85,95 L90,100 L80,105 
    L85,110 L75,115 L80,120 
    L70,125 L65,115 L70,105 
    L65,95 L70,85 L65,80 Z" />
  
  <!-- Add thin stick at the top -->
  <line x1="50" y1="0" x2="50" y2="10" stroke="#ffae42" stroke-width="2" />
</svg>