<svg width="300" height="500" viewBox="0 0 300 500" xmlns="http://www.w3.org/2000/svg">
  <path fill="#000000" d="M150,40 
    C165,40 180,50 190,65 
    L200,60 L210,65 L200,75 
    L210,85 L195,100 L185,95 
    L175,105 L150,95 L125,105 
    L115,95 L105,100 L90,85 
    L100,75 L90,65 L100,60 
    L110,65 C120,50 135,40 150,40 Z
    
    <!-- Pointed hat -->
    M150,40 
    C155,40 160,35 160,30 
    L150,0 L140,30 
    C140,35 145,40 150,40 Z
    
    <!-- Face features suggested by the silhouette -->
    M130,60 
    C135,60 140,65 140,70 
    C140,75 135,80 130,80 
    C125,80 120,75 120,70 
    C120,65 125,60 130,60 Z
    
    M170,60 
    C175,60 180,65 180,70 
    C180,75 175,80 170,80 
    C165,80 160,75 160,70 
    C160,65 165,60 170,60 Z
    
    M150,75 
    L145,85 L155,85 Z
    
    <!-- Long flowing robe -->
    M125,105 
    L105,140 L115,150 L100,180 
    L110,190 L95,220 L105,250 
    L90,280 L105,310 L90,340 
    L110,370 L95,400 L120,450 
    L150,470 L180,450 L205,400 
    L190,370 L210,340 L195,310 
    L210,280 L195,250 L205,220 
    L190,190 L200,180 L185,150 
    L195,140 L175,105 Z
    
    <!-- Add arm with staff on left side -->
    M105,140 
    L70,130 L50,150 L40,130 
    L30,140 L20,130 L30,120 
    L20,110 L40,100 L50,110 
    L60,100 L70,110 L60,120 
    L70,130 L80,120 L90,130 Z
    
    <!-- Add decorative elements to robe -->
    M150,200 
    L170,210 L190,205 L180,220 
    L160,225 L150,220 L140,225 
    L120,220 L110,205 L130,210 Z
    
    M150,300 
    L170,310 L190,305 L180,320 
    L160,325 L150,320 L140,325 
    L120,320 L110,305 L130,310 Z
    
    M110,250 
    L130,260 L110,270 L130,280 Z
    
    M190,250 
    L170,260 L190,270 L170,280 Z" />
</svg>